<svg width="347" height="64" viewBox="0 0 347 64" fill="none" xmlns="http://www.w3.org/2000/svg">
<rect x="7.11108" y="7.11111" width="332.444" height="49.7778" fill="white"/>
<rect x="3.55554" y="3.55556" width="7.11111" height="7.11111" fill="black"/>
<rect x="3.55554" y="53.3333" width="7.11111" height="7.11111" fill="black"/>
<rect x="336" y="3.55556" width="7.11111" height="7.11111" fill="black"/>
<rect x="336" y="53.3333" width="7.11111" height="7.11111" fill="black"/>
<rect y="7.11111" width="7.11111" height="49.7778" fill="black"/>
<rect x="339.556" y="7.11111" width="7.11111" height="49.7778" fill="black"/>
<rect x="7.11108" width="332.444" height="7.11111" fill="black"/>
<rect x="7.11108" y="56.8889" width="332.444" height="7.11111" fill="black"/>
<path d="M51.8597 40.4111H53.5597V35.3111H46.7597V38.7111H41.6597V28.5111H46.7597V31.9111H53.5597V26.8111H51.8597V25.1111H36.5597V26.8111H34.8597V40.4111H36.5597V42.1111H51.8597V40.4111Z" fill="black"/>
<path d="M72.2464 40.4111H73.9464V26.8111H72.2464V25.1111H56.9464V26.8111H55.2464V40.4111H56.9464V42.1111H72.2464V40.4111ZM67.1464 38.7111H62.0464V28.5111H67.1464V38.7111Z" fill="black"/>
<path d="M82.4331 33.6111H84.1331V35.3111H85.8331V37.0111H87.5331V42.1111H94.3331V25.1111H87.5331V30.2111H85.8331V28.5111H84.1331V26.8111H82.4331V25.1111H75.6331V42.1111H82.4331V33.6111Z" fill="black"/>
<path d="M102.82 33.6111H104.52V35.3111H106.22V37.0111H107.92V42.1111H114.72V25.1111H107.92V30.2111H106.22V28.5111H104.52V26.8111H102.82V25.1111H96.0198V42.1111H102.82V33.6111Z" fill="black"/>
<path d="M118.107 42.1111H135.107V38.7111H123.207V35.3111H128.307V31.9111H123.207V28.5111H135.107V25.1111H118.107V26.8111H116.407V40.4111H118.107V42.1111Z" fill="black"/>
<path d="M153.793 40.4111H155.493V35.3111H148.693V38.7111H143.593V28.5111H148.693V31.9111H155.493V26.8111H153.793V25.1111H138.493V26.8111H136.793V40.4111H138.493V42.1111H153.793V40.4111Z" fill="black"/>
<path d="M169.08 28.5111H174.18V25.1111H157.18V28.5111H162.28V42.1111H169.08V28.5111Z" fill="black"/>
<path d="M194.56 40.4111H196.26V38.7111H197.96V37.0111H199.66V38.7111H201.36V40.4111H203.06V42.1111H209.86V25.1111H203.06V33.6111H201.36V31.9111H199.66V30.2111H197.96V31.9111H196.26V33.6111H194.56V25.1111H187.76V42.1111H194.56V40.4111Z" fill="black"/>
<path d="M218.367 35.3111H223.467V42.1111H230.267V26.8111H228.567V25.1111H213.267V26.8111H211.567V42.1111H218.367V35.3111ZM218.367 28.5111H223.467V31.9111H218.367V28.5111Z" fill="black"/>
<path d="M231.953 42.1111H250.653V38.7111H238.753V25.1111H231.953V42.1111Z" fill="black"/>
<path d="M252.34 42.1111H271.04V38.7111H259.14V25.1111H252.34V42.1111Z" fill="black"/>
<path d="M274.427 42.1111H291.427V38.7111H279.527V35.3111H284.627V31.9111H279.527V28.5111H291.427V25.1111H274.427V26.8111H272.727V40.4111H274.427V42.1111Z" fill="black"/>
<path d="M305.014 28.5111H310.114V25.1111H293.114V28.5111H298.214V42.1111H305.014V28.5111Z" fill="black"/>
</svg>
