<svg width="191" height="65" viewBox="0 0 191 65" fill="none" xmlns="http://www.w3.org/2000/svg">
<path d="M19.0293 28H22.0293V31H25.0293V34H28.0293V37H43.0293V31H40.0293V28H37.0293V25H34.0293V19H37.0293V16H40.0293V13H43.0293V7H40.0293H28.0293V10H25.0293V13H22.0293V16H19.0293V7H7.0293V37H19.0293V28Z" fill="white"/>
<path d="M58.0527 25H67.0527V37H79.0527V10H76.0527V7H67.0527H49.0527V10H46.0527V37H58.0527V25ZM58.0527 13H67.0527V19H58.0527V13Z" fill="white"/>
<path d="M94.0293 22H97.0293V25H100.029V28H103.029V37H115.029V7H103.029V16H100.029V13H97.0293V10H94.0293V7H82.0293V37H94.0293V22Z" fill="white"/>
<path d="M139.006 13H148.006V7H118.006V13H127.006V37H139.006V13Z" fill="white"/>
<path d="M180.994 34H183.994V10H180.994V7H153.994V10H150.994V34H153.994V37H180.994V34ZM171.994 25V31H162.994V13H171.994V19V25Z" fill="white"/>
<path fill-rule="evenodd" clip-rule="evenodd" d="M19.0293 16H22.0293V13H25.0293V10H28.0293V7H43.0293V13H40.0293V16H37.0293V19H34.0293V25H37.0293V28H40.0293V31H43.0293V37H28.0293V34H25.0293V31H22.0293V28H19.0293V37H7.0293V7H19.0293V16ZM0.0292969 0V44H146.006V41H146.994V44H187.994V41H190.994V3H187.994V0H0.0292969ZM49.0527 7V10H46.0527V37H58.0527V25H67.0527V37H79.0527V10H76.0527V7H49.0527ZM58.0527 19H67.0527V13H58.0527V19ZM82.0293 7V37H94.0293V22H97.0293V25H100.029V28H103.029V37H115.029V7H103.029V16H100.029V13H97.0293V10H94.0293V7H82.0293ZM127.006 37H139.006V13H148.006V7H118.006V13H127.006V37ZM150.994 34H153.994V37H180.994V34H183.994V10H180.994V7H153.994V10H150.994V34ZM162.994 31H171.994V13H162.994V31Z" fill="black"/>
<path d="M6.3783 63H20.3783V61.6H21.7783V56H20.3783V54.6H16.1783H11.9783V51.8H21.7783V49H7.7783V50.4H6.3783V56H7.7783V57.4H16.1783V60.2H6.3783V63Z" fill="white"/>
<path d="M33.5274 63H47.5274V60.2H37.7274V57.4H41.9274V54.6H37.7274V51.8H47.5274V49H33.5274V50.4H32.1274V61.6H33.5274V63Z" fill="white"/>
<path d="M63.4764 57.4H67.6764V63H73.2764V50.4H71.8764V49H67.6764H59.2764V50.4H57.8764V63H63.4764V57.4ZM63.4764 51.8H67.6764V54.6H63.4764V51.8Z" fill="white"/>
<path d="M83.6255 63H97.6255V61.6H99.0255V56H97.6255V54.6H93.4255H89.2255V51.8H99.0255V49H85.0255V50.4H83.6255V56H85.0255V57.4H93.4255V60.2H83.6255V63Z" fill="white"/>
<path d="M123.375 61.6H124.775V50.4H123.375V49H110.775V50.4H109.375V61.6H110.775V63H123.375V61.6ZM119.175 57.4V60.2H114.975V51.8H119.175V54.6V57.4Z" fill="white"/>
<path d="M140.724 56H142.124V57.4H143.524V58.8H144.924V63H150.524V49H144.924V53.2H143.524V51.8H142.124V50.4H140.724V49H135.124V63H140.724V56Z" fill="white"/>
<path d="M179.622 63H185.222V49H179.622V63Z" fill="white"/>
<path fill-rule="evenodd" clip-rule="evenodd" d="M4.3783 65V58.2H5.7783V58H4.3783V48.4H5.7783V47H23.7783V53.8H22.3783V54H23.7783V63.6H22.3783V65H4.3783ZM21.7783 61.6H20.3783V63H6.3783V60.2H16.1783V57.4H7.7783V56H6.3783V50.4H7.7783V49H21.7783V51.8H11.9783V54.6H20.3783V56H21.7783V61.6ZM31.5274 65V63.6H30.1274V48.4H31.5274V47H49.5274V53.8H43.9274V58.2H49.5274V65H31.5274ZM41.9274 54.6V57.4H37.7274V60.2H47.5274V63H33.5274V61.6H32.1274V50.4H33.5274V49H47.5274V51.8H37.7274V54.6H41.9274ZM67.6764 63V57.4H63.4764V63H57.8764V50.4H59.2764V49H71.8764V50.4H73.2764V63H67.6764ZM73.8764 48.4V47H57.2764V48.4H55.8764V65H65.4764V59.4H65.6764V65H75.2764V48.4H73.8764ZM81.6255 65V58.2H83.0255V58H81.6255V48.4H83.0255V47H101.025V53.8H99.6255V54H101.025V63.6H99.6255V65H81.6255ZM99.0255 61.6H97.6255V63H83.6255V60.2H93.4255V57.4H85.0255V56H83.6255V50.4H85.0255V49H99.0255V51.8H89.2255V54.6H97.6255V56H99.0255V61.6ZM124.775 61.6H123.375V63H110.775V61.6H109.375V50.4H110.775V49H123.375V50.4H124.775V61.6ZM125.375 48.4H126.775V63.6H125.375V65H108.775V63.6H107.375V48.4H108.775V47H125.375V48.4ZM117.175 58.2V53.8H116.975V58.2H117.175ZM144.924 49H150.524V63H144.924V58.8H143.524V57.4H142.124V56H140.724V63H135.124V49H140.724V50.4H142.124V51.8H143.524V53.2H144.924V49ZM142.924 48.4V47H152.524V65H142.924V60.8H142.724V65H133.124V47H142.724V48.4H142.924ZM177.622 65V47H187.222V65H177.622ZM185.222 63H179.622V49H185.222V63ZM63.4764 51.8V54.6H67.6764V51.8H63.4764ZM119.175 51.8H114.975V60.2H119.175V51.8Z" fill="black"/>
</svg>
